<?xml version="1.0" standalone="no"?>
<!DOCTYPE svg PUBLIC "-//W3C//DTD SVG 20010904//EN"
 "http://www.w3.org/TR/2001/REC-SVG-20010904/DTD/svg10.dtd">
<svg version="1.0" xmlns="http://www.w3.org/2000/svg"
 width="260.000000pt" height="260.000000pt" viewBox="0 0 260.000000 260.000000"
 preserveAspectRatio="xMidYMid meet">
<metadata>
Created by potrace 1.16, written by Peter Selinger 2001-2019
</metadata>
<g transform="translate(0.000000,260.000000) scale(0.100000,-0.100000)"
fill="#000000" stroke="none">
<path d="M1156 2520 c-533 -67 -965 -483 -1051 -1010 -122 -756 478 -1437
1240 -1407 72 3 162 12 200 21 484 106 835 458 946 950 42 182 21 456 -47 648
-144 401 -487 697 -906 782 -96 20 -289 28 -382 16z m-276 -235 c41 -21 88
-80 96 -121 26 -140 -78 -303 -245 -383 -66 -31 -86 -36 -151 -36 -88 0 -140
23 -180 82 -35 51 -35 156 0 228 31 65 142 175 211 209 96 46 204 55 269 21z
m828 -591 c89 -44 145 -134 146 -234 0 -75 -19 -125 -67 -178 -62 -66 -108
-87 -197 -87 -89 0 -136 21 -194 85 -51 56 -69 103 -69 175 -1 152 112 265
263 265 51 0 78 -6 118 -26z m-493 -445 c10 -22 42 -64 71 -94 179 -182 473
-160 631 47 l20 27 129 -34 c187 -48 378 -118 382 -138 5 -25 -44 -172 -87
-257 -86 -174 -251 -358 -418 -467 -415 -271 -956 -251 -1355 48 -138 103
-289 290 -357 443 -41 90 -83 228 -74 237 11 11 149 58 312 109 154 47 331 84
476 99 262 28 248 29 270 -20z"/>
<path d="M1515 1646 c-86 -37 -131 -115 -123 -210 9 -106 91 -180 199 -181
217 0 278 306 77 390 -45 18 -112 19 -153 1z m165 -25 c48 -24 91 -88 97 -145
7 -59 -31 -141 -81 -174 -70 -47 -165 -41 -226 14 -168 152 8 407 210 305z"/>
</g>
</svg>
